<?xml version="1.0" encoding="UTF-8" standalone="no"?>
<!DOCTYPE svg PUBLIC "-//W3C//DTD SVG 1.1//EN"
"http://www.w3.org/Graphics/SVG/1.1/DTD/svg11.dtd">
<svg viewBox="0 0 909 1285" version="1.1" xmlns="http://www.w3.org/2000/svg" xmlns:xlink="http://www.w3.org/1999/xlink">
<defs>
<style type="text/css"><![CDATA[
.g0_26{
fill: #D9D9D9;
}
.g1_26{
fill: #FFFFFF;
}
]]></style>
</defs>
<path fill-rule="evenodd" d="M129.8,1188.5H824.1v-.7H129.8v.7Z" class="g0_26"/>
<path fill-rule="evenodd" d="M129.8,132.4H824.1V110H129.8v22.4Z" class="g1_26"/>
<path fill-rule="evenodd" d="M129.8,163.9H824.1V132.4H129.8v31.5Z" class="g1_26"/>
<path fill-rule="evenodd" d="M129.8,186.3H824.1V163.9H129.8v22.4Z" class="g1_26"/>
<path fill-rule="evenodd" d="M129.8,208.7H824.1V186.3H129.8v22.4Z" class="g1_26"/>
<path fill-rule="evenodd" d="M129.8,240.4H824.1V208.7H129.8v31.7Z" class="g1_26"/>
<path fill-rule="evenodd" d="M129.8,262.7H824.1V240.4H129.8v22.3Z" class="g1_26"/>
<path fill-rule="evenodd" d="M129.8,285.1H824.1V262.7H129.8v22.4Z" class="g1_26"/>
<path fill-rule="evenodd" d="M129.8,316.6H824.1V285.1H129.8v31.5Z" class="g1_26"/>
<path fill-rule="evenodd" d="M129.8,339H824.1V316.6H129.8V339Z" class="g1_26"/>
<path fill-rule="evenodd" d="M129.8,361.4H824.1V339H129.8v22.4Z" class="g1_26"/>
<path fill-rule="evenodd" d="M129.8,383.7H824.1V361.4H129.8v22.3Z" class="g1_26"/>
<path fill-rule="evenodd" d="M129.8,406.1H824.1V383.7H129.8v22.4Z" class="g1_26"/>
<path fill-rule="evenodd" d="M129.8,428.7H824.1V406.1H129.8v22.6Z" class="g1_26"/>
<path fill-rule="evenodd" d="M129.8,451.1H824.1V428.7H129.8v22.4Z" class="g1_26"/>
<path fill-rule="evenodd" d="M129.8,482.6H824.1V451.1H129.8v31.5Z" class="g1_26"/>
<path fill-rule="evenodd" d="M129.8,505H824.1V482.6H129.8V505Z" class="g1_26"/>
<path fill-rule="evenodd" d="M129.8,527.3H824.1V505H129.8v22.3Z" class="g1_26"/>
<path fill-rule="evenodd" d="M129.8,549.7H824.1V527.3H129.8v22.4Z" class="g1_26"/>
<path fill-rule="evenodd" d="M129.8,572.1H824.1V549.7H129.8v22.4Z" class="g1_26"/>
<path fill-rule="evenodd" d="M129.8,594.4H824.1V572.1H129.8v22.3Z" class="g1_26"/>
<path fill-rule="evenodd" d="M129.8,617H824.1V594.4H129.8V617Z" class="g1_26"/>
<path fill-rule="evenodd" d="M129.8,639.4H824.1V617H129.8v22.4Z" class="g1_26"/>
<path fill-rule="evenodd" d="M129.8,670.9H824.1V639.4H129.8v31.5Z" class="g1_26"/>
<path fill-rule="evenodd" d="M129.8,693.3H824.1V670.9H129.8v22.4Z" class="g1_26"/>
<path fill-rule="evenodd" d="M129.8,715.7H824.1V693.3H129.8v22.4Z" class="g1_26"/>
<path fill-rule="evenodd" d="M129.8,738H824.1V715.7H129.8V738Z" class="g1_26"/>
<path fill-rule="evenodd" d="M129.8,760.4H824.1V738H129.8v22.4Z" class="g1_26"/>
<path fill-rule="evenodd" d="M129.8,782.8H824.1V760.4H129.8v22.4Z" class="g1_26"/>
<path fill-rule="evenodd" d="M129.8,805.3H824.1V782.8H129.8v22.5Z" class="g1_26"/>
<path fill-rule="evenodd" d="M129.8,836.8H824.1V805.3H129.8v31.5Z" class="g1_26"/>
<path fill-rule="evenodd" d="M129.8,859.2H824.1V836.8H129.8v22.4Z" class="g1_26"/>
<path fill-rule="evenodd" d="M129.8,881.6H824.1V859.2H129.8v22.4Z" class="g1_26"/>
<path fill-rule="evenodd" d="M129.8,903.9H824.1V881.6H129.8v22.3Z" class="g1_26"/>
<path fill-rule="evenodd" d="M129.8,926.3H824.1V903.9H129.8v22.4Z" class="g1_26"/>
<path fill-rule="evenodd" d="M129.8,948.7H824.1V926.3H129.8v22.4Z" class="g1_26"/>
<path fill-rule="evenodd" d="M129.8,971H824.1V948.7H129.8V971Z" class="g1_26"/>
<path fill-rule="evenodd" d="M129.8,993.4H824.1V971H129.8v22.4Z" class="g1_26"/>
<path fill-rule="evenodd" d="M129.8,1016H824.1V993.4H129.8V1016Z" class="g1_26"/>
<path fill-rule="evenodd" d="M129.8,1047.5H824.1V1016H129.8v31.5Z" class="g1_26"/>
<path fill-rule="evenodd" d="M129.8,1069.9H824.1v-22.4H129.8v22.4Z" class="g1_26"/>
<path fill-rule="evenodd" d="M129.8,1092.3H824.1v-22.4H129.8v22.4Z" class="g1_26"/>
<path fill-rule="evenodd" d="M129.8,1123.8H824.1v-31.5H129.8v31.5Z" class="g1_26"/>
<path fill-rule="evenodd" d="M129.8,1146.2H824.1v-22.4H129.8v22.4Z" class="g1_26"/>
</svg>