<?xml version="1.0" encoding="UTF-8" standalone="no"?>
<!DOCTYPE svg PUBLIC "-//W3C//DTD SVG 1.1//EN"
"http://www.w3.org/Graphics/SVG/1.1/DTD/svg11.dtd">
<svg viewBox="0 0 909 1285" version="1.1" xmlns="http://www.w3.org/2000/svg" xmlns:xlink="http://www.w3.org/1999/xlink">
<defs>
<style type="text/css"><![CDATA[
.g0_28{
fill: #D9D9D9;
}
.g1_28{
fill: #FFFFFF;
}
]]></style>
</defs>
<path fill-rule="evenodd" d="M129.8,1188.5H824.1v-.7H129.8v.7Z" class="g0_28"/>
<path fill-rule="evenodd" d="M129.8,132.4H824.1V110H129.8v22.4Z" class="g1_28"/>
<path fill-rule="evenodd" d="M129.8,163.9H824.1V132.4H129.8v31.5Z" class="g1_28"/>
<path fill-rule="evenodd" d="M129.8,186.3H824.1V163.9H129.8v22.4Z" class="g1_28"/>
<path fill-rule="evenodd" d="M129.8,208.7H824.1V186.3H129.8v22.4Z" class="g1_28"/>
<path fill-rule="evenodd" d="M129.8,231.2H824.1V208.7H129.8v22.5Z" class="g1_28"/>
<path fill-rule="evenodd" d="M129.8,253.6H824.1V231.2H129.8v22.4Z" class="g1_28"/>
<path fill-rule="evenodd" d="M129.8,275.9H824.1V253.6H129.8v22.3Z" class="g1_28"/>
<path fill-rule="evenodd" d="M129.8,298.3H824.1V275.9H129.8v22.4Z" class="g1_28"/>
<path fill-rule="evenodd" d="M129.8,320.7H824.1V298.3H129.8v22.4Z" class="g1_28"/>
<path fill-rule="evenodd" d="M129.8,343H824.1V320.7H129.8V343Z" class="g1_28"/>
<path fill-rule="evenodd" d="M129.8,374.6H824.1V343H129.8v31.6Z" class="g1_28"/>
<path fill-rule="evenodd" d="M129.8,396.9H824.1V374.6H129.8v22.3Z" class="g1_28"/>
<path fill-rule="evenodd" d="M129.8,419.5H824.1V396.9H129.8v22.6Z" class="g1_28"/>
<path fill-rule="evenodd" d="M129.8,441.9H824.1V419.5H129.8v22.4Z" class="g1_28"/>
<path fill-rule="evenodd" d="M129.8,464.3H824.1V441.9H129.8v22.4Z" class="g1_28"/>
<path fill-rule="evenodd" d="M129.8,486.6H824.1V464.3H129.8v22.3Z" class="g1_28"/>
<path fill-rule="evenodd" d="M129.8,509H824.1V486.6H129.8V509Z" class="g1_28"/>
<path fill-rule="evenodd" d="M129.8,531.4H824.1V509H129.8v22.4Z" class="g1_28"/>
<path fill-rule="evenodd" d="M129.8,553.7H824.1V531.4H129.8v22.3Z" class="g1_28"/>
<path fill-rule="evenodd" d="M129.8,576.1H824.1V553.7H129.8v22.4Z" class="g1_28"/>
<path fill-rule="evenodd" d="M129.8,607.8H824.1V576.1H129.8v31.7Z" class="g1_28"/>
<path fill-rule="evenodd" d="M129.8,630.2H824.1V607.8H129.8v22.4Z" class="g1_28"/>
<path fill-rule="evenodd" d="M129.8,652.6H824.1V630.2H129.8v22.4Z" class="g1_28"/>
<path fill-rule="evenodd" d="M129.8,674.9H824.1V652.6H129.8v22.3Z" class="g1_28"/>
<path fill-rule="evenodd" d="M129.8,697.3H824.1V674.9H129.8v22.4Z" class="g1_28"/>
<path fill-rule="evenodd" d="M129.8,719.7H824.1V697.3H129.8v22.4Z" class="g1_28"/>
<path fill-rule="evenodd" d="M129.8,742.1H824.1V719.7H129.8v22.4Z" class="g1_28"/>
<path fill-rule="evenodd" d="M129.8,764.4H824.1V742.1H129.8v22.3Z" class="g1_28"/>
<path fill-rule="evenodd" d="M129.8,796.1H824.1V764.4H129.8v31.7Z" class="g1_28"/>
<path fill-rule="evenodd" d="M129.8,818.5H824.1V796.1H129.8v22.4Z" class="g1_28"/>
<path fill-rule="evenodd" d="M129.8,840.9H824.1V818.5H129.8v22.4Z" class="g1_28"/>
<path fill-rule="evenodd" d="M129.8,863.2H824.1V840.9H129.8v22.3Z" class="g1_28"/>
<path fill-rule="evenodd" d="M129.8,885.6H824.1V863.2H129.8v22.4Z" class="g1_28"/>
<path fill-rule="evenodd" d="M129.8,908H824.1V885.6H129.8V908Z" class="g1_28"/>
<path fill-rule="evenodd" d="M129.8,930.3H824.1V908H129.8v22.3Z" class="g1_28"/>
<path fill-rule="evenodd" d="M129.8,952.7H824.1V930.3H129.8v22.4Z" class="g1_28"/>
<path fill-rule="evenodd" d="M129.8,975.1H824.1V952.7H129.8v22.4Z" class="g1_28"/>
<path fill-rule="evenodd" d="M129.8,997.7H824.1V975.1H129.8v22.6Z" class="g1_28"/>
<path fill-rule="evenodd" d="M129.8,1020H824.1V997.7H129.8V1020Z" class="g1_28"/>
<path fill-rule="evenodd" d="M129.8,1042.4H824.1V1020H129.8v22.4Z" class="g1_28"/>
<path fill-rule="evenodd" d="M129.8,1064.8H824.1v-22.4H129.8v22.4Z" class="g1_28"/>
<path fill-rule="evenodd" d="M129.8,1087.1H824.1v-22.3H129.8v22.3Z" class="g1_28"/>
<path fill-rule="evenodd" d="M129.8,1109.5H824.1v-22.4H129.8v22.4Z" class="g1_28"/>
<path fill-rule="evenodd" d="M129.8,1131.9H824.1v-22.4H129.8v22.4Z" class="g1_28"/>
<path fill-rule="evenodd" d="M129.8,1154.2H824.1v-22.3H129.8v22.3Z" class="g1_28"/>
</svg>