<?xml version="1.0" encoding="UTF-8" standalone="no"?>
<!DOCTYPE svg PUBLIC "-//W3C//DTD SVG 1.1//EN"
"http://www.w3.org/Graphics/SVG/1.1/DTD/svg11.dtd">
<svg viewBox="0 0 909 1285" version="1.1" xmlns="http://www.w3.org/2000/svg" xmlns:xlink="http://www.w3.org/1999/xlink">
<defs>
<style type="text/css"><![CDATA[
.g0_25{
fill: #D9D9D9;
}
.g1_25{
fill: #FFFFFF;
}
]]></style>
</defs>
<path fill-rule="evenodd" d="M129.8,1188.5H824.1v-.7H129.8v.7Z" class="g0_25"/>
<path fill-rule="evenodd" d="M129.8,132.4H824.1V110H129.8v22.4Z" class="g1_25"/>
<path fill-rule="evenodd" d="M129.8,154.8H824.1V132.4H129.8v22.4Z" class="g1_25"/>
<path fill-rule="evenodd" d="M129.8,177.1H824.1V154.8H129.8v22.3Z" class="g1_25"/>
<path fill-rule="evenodd" d="M129.8,199.5H824.1V177.1H129.8v22.4Z" class="g1_25"/>
<path fill-rule="evenodd" d="M129.8,222H824.1V199.5H129.8V222Z" class="g1_25"/>
<path fill-rule="evenodd" d="M129.8,244.4H824.1V222H129.8v22.4Z" class="g1_25"/>
<path fill-rule="evenodd" d="M129.8,266.8H824.1V244.4H129.8v22.4Z" class="g1_25"/>
<path fill-rule="evenodd" d="M129.8,298.3H824.1V266.8H129.8v31.5Z" class="g1_25"/>
<path fill-rule="evenodd" d="M129.8,329.8H824.1V298.3H129.8v31.5Z" class="g1_25"/>
<path fill-rule="evenodd" d="M129.8,352.2H824.1V329.8H129.8v22.4Z" class="g1_25"/>
<path fill-rule="evenodd" d="M129.8,374.6H824.1V352.2H129.8v22.4Z" class="g1_25"/>
<path fill-rule="evenodd" d="M129.8,396.9H824.1V374.6H129.8v22.3Z" class="g1_25"/>
<path fill-rule="evenodd" d="M129.8,419.5H824.1V396.9H129.8v22.6Z" class="g1_25"/>
<path fill-rule="evenodd" d="M129.8,441.9H824.1V419.5H129.8v22.4Z" class="g1_25"/>
<path fill-rule="evenodd" d="M129.8,464.3H824.1V441.9H129.8v22.4Z" class="g1_25"/>
<path fill-rule="evenodd" d="M129.8,495.8H824.1V464.3H129.8v31.5Z" class="g1_25"/>
<path fill-rule="evenodd" d="M129.8,518.2H824.1V495.8H129.8v22.4Z" class="g1_25"/>
<path fill-rule="evenodd" d="M129.8,540.5H824.1V518.2H129.8v22.3Z" class="g1_25"/>
<path fill-rule="evenodd" d="M129.8,562.9H824.1V540.5H129.8v22.4Z" class="g1_25"/>
<path fill-rule="evenodd" d="M129.8,585.3H824.1V562.9H129.8v22.4Z" class="g1_25"/>
<path fill-rule="evenodd" d="M129.8,607.8H824.1V585.3H129.8v22.5Z" class="g1_25"/>
<path fill-rule="evenodd" d="M129.8,630.2H824.1V607.8H129.8v22.4Z" class="g1_25"/>
<path fill-rule="evenodd" d="M129.8,661.7H824.1V630.2H129.8v31.5Z" class="g1_25"/>
<path fill-rule="evenodd" d="M129.8,684.1H824.1V661.7H129.8v22.4Z" class="g1_25"/>
<path fill-rule="evenodd" d="M129.8,706.5H824.1V684.1H129.8v22.4Z" class="g1_25"/>
<path fill-rule="evenodd" d="M129.8,728.9H824.1V706.5H129.8v22.4Z" class="g1_25"/>
<path fill-rule="evenodd" d="M129.8,751.2H824.1V728.9H129.8v22.3Z" class="g1_25"/>
<path fill-rule="evenodd" d="M129.8,773.6H824.1V751.2H129.8v22.4Z" class="g1_25"/>
<path fill-rule="evenodd" d="M129.8,796.1H824.1V773.6H129.8v22.5Z" class="g1_25"/>
<path fill-rule="evenodd" d="M129.8,827.7H824.1V796.1H129.8v31.6Z" class="g1_25"/>
<path fill-rule="evenodd" d="M129.8,850H824.1V827.7H129.8V850Z" class="g1_25"/>
<path fill-rule="evenodd" d="M129.8,872.4H824.1V850H129.8v22.4Z" class="g1_25"/>
<path fill-rule="evenodd" d="M129.8,894.8H824.1V872.4H129.8v22.4Z" class="g1_25"/>
<path fill-rule="evenodd" d="M129.8,917.1H824.1V894.8H129.8v22.3Z" class="g1_25"/>
<path fill-rule="evenodd" d="M129.8,939.5H824.1V917.1H129.8v22.4Z" class="g1_25"/>
<path fill-rule="evenodd" d="M129.8,961.9H824.1V939.5H129.8v22.4Z" class="g1_25"/>
<path fill-rule="evenodd" d="M129.8,984.2H824.1V961.9H129.8v22.3Z" class="g1_25"/>
<path fill-rule="evenodd" d="M129.8,1006.8H824.1V984.2H129.8v22.6Z" class="g1_25"/>
<path fill-rule="evenodd" d="M129.8,1038.4H824.1v-31.6H129.8v31.6Z" class="g1_25"/>
<path fill-rule="evenodd" d="M129.8,1060.7H824.1v-22.3H129.8v22.3Z" class="g1_25"/>
<path fill-rule="evenodd" d="M129.8,1083.1H824.1v-22.4H129.8v22.4Z" class="g1_25"/>
<path fill-rule="evenodd" d="M129.8,1105.5H824.1v-22.4H129.8v22.4Z" class="g1_25"/>
<path fill-rule="evenodd" d="M129.8,1127.8H824.1v-22.3H129.8v22.3Z" class="g1_25"/>
<path fill-rule="evenodd" d="M129.8,1150.2H824.1v-22.4H129.8v22.4Z" class="g1_25"/>
<path fill-rule="evenodd" d="M129.8,1172.6H824.1v-22.4H129.8v22.4Z" class="g1_25"/>
</svg>