<?xml version="1.0" encoding="UTF-8" standalone="no"?>
<!DOCTYPE svg PUBLIC "-//W3C//DTD SVG 1.1//EN"
"http://www.w3.org/Graphics/SVG/1.1/DTD/svg11.dtd">
<svg viewBox="0 0 909 1285" version="1.1" xmlns="http://www.w3.org/2000/svg" xmlns:xlink="http://www.w3.org/1999/xlink">
<defs>
<style type="text/css"><![CDATA[
.g0_30{
fill: #D9D9D9;
}
.g1_30{
fill: #FFFFFF;
}
]]></style>
</defs>
<path fill-rule="evenodd" d="M129.8,1188.5H824.1v-.7H129.8v.7Z" class="g0_30"/>
<path fill-rule="evenodd" d="M129.8,132.4H824.1V110H129.8v22.4Z" class="g1_30"/>
<path fill-rule="evenodd" d="M129.8,154.8H824.1V132.4H129.8v22.4Z" class="g1_30"/>
<path fill-rule="evenodd" d="M129.8,177.1H824.1V154.8H129.8v22.3Z" class="g1_30"/>
<path fill-rule="evenodd" d="M129.8,199.5H824.1V177.1H129.8v22.4Z" class="g1_30"/>
<path fill-rule="evenodd" d="M129.8,222H824.1V199.5H129.8V222Z" class="g1_30"/>
<path fill-rule="evenodd" d="M129.8,253.6H824.1V222H129.8v31.6Z" class="g1_30"/>
<path fill-rule="evenodd" d="M129.8,275.9H824.1V253.6H129.8v22.3Z" class="g1_30"/>
<path fill-rule="evenodd" d="M129.8,298.3H824.1V275.9H129.8v22.4Z" class="g1_30"/>
<path fill-rule="evenodd" d="M129.8,320.7H824.1V298.3H129.8v22.4Z" class="g1_30"/>
<path fill-rule="evenodd" d="M129.8,343H824.1V320.7H129.8V343Z" class="g1_30"/>
<path fill-rule="evenodd" d="M129.8,374.6H824.1V343H129.8v31.6Z" class="g1_30"/>
<path fill-rule="evenodd" d="M129.8,406.1H824.1V374.6H129.8v31.5Z" class="g1_30"/>
<path fill-rule="evenodd" d="M129.8,428.7H824.1V406.1H129.8v22.6Z" class="g1_30"/>
<path fill-rule="evenodd" d="M129.8,451.1H824.1V428.7H129.8v22.4Z" class="g1_30"/>
<path fill-rule="evenodd" d="M129.8,473.4H824.1V451.1H129.8v22.3Z" class="g1_30"/>
<path fill-rule="evenodd" d="M129.8,495.8H824.1V473.4H129.8v22.4Z" class="g1_30"/>
<path fill-rule="evenodd" d="M129.8,518.2H824.1V495.8H129.8v22.4Z" class="g1_30"/>
<path fill-rule="evenodd" d="M129.8,540.5H824.1V518.2H129.8v22.3Z" class="g1_30"/>
<path fill-rule="evenodd" d="M129.8,562.9H824.1V540.5H129.8v22.4Z" class="g1_30"/>
<path fill-rule="evenodd" d="M129.8,585.3H824.1V562.9H129.8v22.4Z" class="g1_30"/>
<path fill-rule="evenodd" d="M129.8,607.8H824.1V585.3H129.8v22.5Z" class="g1_30"/>
<path fill-rule="evenodd" d="M129.8,639.4H824.1V607.8H129.8v31.6Z" class="g1_30"/>
<path fill-rule="evenodd" d="M129.8,661.7H824.1V639.4H129.8v22.3Z" class="g1_30"/>
<path fill-rule="evenodd" d="M129.8,684.1H824.1V661.7H129.8v22.4Z" class="g1_30"/>
<path fill-rule="evenodd" d="M129.8,706.5H824.1V684.1H129.8v22.4Z" class="g1_30"/>
<path fill-rule="evenodd" d="M129.8,728.9H824.1V706.5H129.8v22.4Z" class="g1_30"/>
<path fill-rule="evenodd" d="M129.8,751.2H824.1V728.9H129.8v22.3Z" class="g1_30"/>
<path fill-rule="evenodd" d="M129.8,773.6H824.1V751.2H129.8v22.4Z" class="g1_30"/>
<path fill-rule="evenodd" d="M129.8,796.1H824.1V773.6H129.8v22.5Z" class="g1_30"/>
<path fill-rule="evenodd" d="M129.8,827.7H824.1V796.1H129.8v31.6Z" class="g1_30"/>
<path fill-rule="evenodd" d="M129.8,850H824.1V827.7H129.8V850Z" class="g1_30"/>
<path fill-rule="evenodd" d="M129.8,872.4H824.1V850H129.8v22.4Z" class="g1_30"/>
<path fill-rule="evenodd" d="M129.8,894.8H824.1V872.4H129.8v22.4Z" class="g1_30"/>
<path fill-rule="evenodd" d="M129.8,917.1H824.1V894.8H129.8v22.3Z" class="g1_30"/>
<path fill-rule="evenodd" d="M129.8,939.5H824.1V917.1H129.8v22.4Z" class="g1_30"/>
<path fill-rule="evenodd" d="M129.8,971H824.1V939.5H129.8V971Z" class="g1_30"/>
<path fill-rule="evenodd" d="M129.8,993.4H824.1V971H129.8v22.4Z" class="g1_30"/>
<path fill-rule="evenodd" d="M129.8,1016H824.1V993.4H129.8V1016Z" class="g1_30"/>
<path fill-rule="evenodd" d="M129.8,1038.4H824.1V1016H129.8v22.4Z" class="g1_30"/>
<path fill-rule="evenodd" d="M129.8,1060.7H824.1v-22.3H129.8v22.3Z" class="g1_30"/>
<path fill-rule="evenodd" d="M129.8,1083.1H824.1v-22.4H129.8v22.4Z" class="g1_30"/>
<path fill-rule="evenodd" d="M129.8,1105.5H824.1v-22.4H129.8v22.4Z" class="g1_30"/>
<path fill-rule="evenodd" d="M129.8,1127.8H824.1v-22.3H129.8v22.3Z" class="g1_30"/>
<path fill-rule="evenodd" d="M129.8,1150.2H824.1v-22.4H129.8v22.4Z" class="g1_30"/>
</svg>