<?xml version="1.0" encoding="UTF-8" standalone="no"?>
<!DOCTYPE svg PUBLIC "-//W3C//DTD SVG 1.1//EN"
"http://www.w3.org/Graphics/SVG/1.1/DTD/svg11.dtd">
<svg viewBox="0 0 909 1285" version="1.1" xmlns="http://www.w3.org/2000/svg" xmlns:xlink="http://www.w3.org/1999/xlink">
<defs>
<style type="text/css"><![CDATA[
.g0_27{
fill: #D9D9D9;
}
.g1_27{
fill: #FFFFFF;
}
]]></style>
</defs>
<path fill-rule="evenodd" d="M129.8,1188.5H824.1v-.7H129.8v.7Z" class="g0_27"/>
<path fill-rule="evenodd" d="M129.8,141.5H824.1V110H129.8v31.5Z" class="g1_27"/>
<path fill-rule="evenodd" d="M129.8,173.1H824.1V141.5H129.8v31.6Z" class="g1_27"/>
<path fill-rule="evenodd" d="M129.8,204.6H824.1V173.1H129.8v31.5Z" class="g1_27"/>
<path fill-rule="evenodd" d="M129.8,236.2H824.1V204.6H129.8v31.6Z" class="g1_27"/>
<path fill-rule="evenodd" d="M129.8,267.9H824.1V236.2H129.8v31.7Z" class="g1_27"/>
<path fill-rule="evenodd" d="M129.8,299.4H824.1V267.9H129.8v31.5Z" class="g1_27"/>
<path fill-rule="evenodd" d="M129.8,321.8H824.1V299.4H129.8v22.4Z" class="g1_27"/>
<path fill-rule="evenodd" d="M129.8,344.1H824.1V321.8H129.8v22.3Z" class="g1_27"/>
<path fill-rule="evenodd" d="M129.8,366.5H824.1V344.1H129.8v22.4Z" class="g1_27"/>
<path fill-rule="evenodd" d="M129.8,398H824.1V366.5H129.8V398Z" class="g1_27"/>
<path fill-rule="evenodd" d="M129.8,420.4H824.1V398H129.8v22.4Z" class="g1_27"/>
<path fill-rule="evenodd" d="M129.8,442.8H824.1V420.4H129.8v22.4Z" class="g1_27"/>
<path fill-rule="evenodd" d="M129.8,465.4H824.1V442.8H129.8v22.6Z" class="g1_27"/>
<path fill-rule="evenodd" d="M129.8,487.7H824.1V465.4H129.8v22.3Z" class="g1_27"/>
<path fill-rule="evenodd" d="M129.8,510.1H824.1V487.7H129.8v22.4Z" class="g1_27"/>
<path fill-rule="evenodd" d="M129.8,532.5H824.1V510.1H129.8v22.4Z" class="g1_27"/>
<path fill-rule="evenodd" d="M129.8,564H824.1V532.5H129.8V564Z" class="g1_27"/>
<path fill-rule="evenodd" d="M129.8,586.4H824.1V564H129.8v22.4Z" class="g1_27"/>
<path fill-rule="evenodd" d="M129.8,608.7H824.1V586.4H129.8v22.3Z" class="g1_27"/>
<path fill-rule="evenodd" d="M129.8,631.1H824.1V608.7H129.8v22.4Z" class="g1_27"/>
<path fill-rule="evenodd" d="M129.8,653.7H824.1V631.1H129.8v22.6Z" class="g1_27"/>
<path fill-rule="evenodd" d="M129.8,685.2H824.1V653.7H129.8v31.5Z" class="g1_27"/>
<path fill-rule="evenodd" d="M129.8,707.6H824.1V685.2H129.8v22.4Z" class="g1_27"/>
<path fill-rule="evenodd" d="M129.8,730H824.1V707.6H129.8V730Z" class="g1_27"/>
<path fill-rule="evenodd" d="M129.8,752.3H824.1V730H129.8v22.3Z" class="g1_27"/>
<path fill-rule="evenodd" d="M129.8,774.7H824.1V752.3H129.8v22.4Z" class="g1_27"/>
<path fill-rule="evenodd" d="M129.8,797.1H824.1V774.7H129.8v22.4Z" class="g1_27"/>
<path fill-rule="evenodd" d="M129.8,828.6H824.1V797.1H129.8v31.5Z" class="g1_27"/>
<path fill-rule="evenodd" d="M129.8,851.1H824.1V828.6H129.8v22.5Z" class="g1_27"/>
<path fill-rule="evenodd" d="M129.8,873.5H824.1V851.1H129.8v22.4Z" class="g1_27"/>
<path fill-rule="evenodd" d="M129.8,895.9H824.1V873.5H129.8v22.4Z" class="g1_27"/>
<path fill-rule="evenodd" d="M129.8,918.2H824.1V895.9H129.8v22.3Z" class="g1_27"/>
<path fill-rule="evenodd" d="M129.8,940.6H824.1V918.2H129.8v22.4Z" class="g1_27"/>
<path fill-rule="evenodd" d="M129.8,963H824.1V940.6H129.8V963Z" class="g1_27"/>
<path fill-rule="evenodd" d="M129.8,985.3H824.1V963H129.8v22.3Z" class="g1_27"/>
<path fill-rule="evenodd" d="M129.8,1007.8H824.1V985.3H129.8v22.5Z" class="g1_27"/>
<path fill-rule="evenodd" d="M129.8,1030.1H824.1v-22.3H129.8v22.3Z" class="g1_27"/>
<path fill-rule="evenodd" d="M129.8,1052.7H824.1v-22.6H129.8v22.6Z" class="g1_27"/>
<path fill-rule="evenodd" d="M129.8,1084.2H824.1v-31.5H129.8v31.5Z" class="g1_27"/>
<path fill-rule="evenodd" d="M129.8,1115.7H824.1v-31.5H129.8v31.5Z" class="g1_27"/>
<path fill-rule="evenodd" d="M129.8,1138.1H824.1v-22.4H129.8v22.4Z" class="g1_27"/>
<path fill-rule="evenodd" d="M129.8,1160.5H824.1v-22.4H129.8v22.4Z" class="g1_27"/>
</svg>