<?xml version="1.0" encoding="UTF-8" standalone="no"?>
<!DOCTYPE svg PUBLIC "-//W3C//DTD SVG 1.1//EN"
"http://www.w3.org/Graphics/SVG/1.1/DTD/svg11.dtd">
<svg viewBox="0 0 909 1285" version="1.1" xmlns="http://www.w3.org/2000/svg" xmlns:xlink="http://www.w3.org/1999/xlink">
<defs>
<style type="text/css"><![CDATA[
.g0_31{
fill: #D9D9D9;
}
.g1_31{
fill: #FFFFFF;
}
]]></style>
</defs>
<path fill-rule="evenodd" d="M129.8,1188.5H824.1v-.7H129.8v.7Z" class="g0_31"/>
<path fill-rule="evenodd" d="M129.8,132.4H824.1V110H129.8v22.4Z" class="g1_31"/>
<path fill-rule="evenodd" d="M129.8,154.8H824.1V132.4H129.8v22.4Z" class="g1_31"/>
<path fill-rule="evenodd" d="M129.8,177.1H824.1V154.8H129.8v22.3Z" class="g1_31"/>
<path fill-rule="evenodd" d="M129.8,199.5H824.1V177.1H129.8v22.4Z" class="g1_31"/>
<path fill-rule="evenodd" d="M129.8,231.2H824.1V199.5H129.8v31.7Z" class="g1_31"/>
<path fill-rule="evenodd" d="M129.8,253.6H824.1V231.2H129.8v22.4Z" class="g1_31"/>
<path fill-rule="evenodd" d="M129.8,275.9H824.1V253.6H129.8v22.3Z" class="g1_31"/>
<path fill-rule="evenodd" d="M129.8,298.3H824.1V275.9H129.8v22.4Z" class="g1_31"/>
<path fill-rule="evenodd" d="M129.8,320.7H824.1V298.3H129.8v22.4Z" class="g1_31"/>
<path fill-rule="evenodd" d="M129.8,343H824.1V320.7H129.8V343Z" class="g1_31"/>
<path fill-rule="evenodd" d="M129.8,365.4H824.1V343H129.8v22.4Z" class="g1_31"/>
<path fill-rule="evenodd" d="M129.8,396.9H824.1V365.4H129.8v31.5Z" class="g1_31"/>
<path fill-rule="evenodd" d="M129.8,419.5H824.1V396.9H129.8v22.6Z" class="g1_31"/>
<path fill-rule="evenodd" d="M129.8,441.9H824.1V419.5H129.8v22.4Z" class="g1_31"/>
<path fill-rule="evenodd" d="M129.8,464.3H824.1V441.9H129.8v22.4Z" class="g1_31"/>
<path fill-rule="evenodd" d="M129.8,486.6H824.1V464.3H129.8v22.3Z" class="g1_31"/>
<path fill-rule="evenodd" d="M129.8,509H824.1V486.6H129.8V509Z" class="g1_31"/>
<path fill-rule="evenodd" d="M129.8,531.4H824.1V509H129.8v22.4Z" class="g1_31"/>
<path fill-rule="evenodd" d="M129.8,553.7H824.1V531.4H129.8v22.3Z" class="g1_31"/>
<path fill-rule="evenodd" d="M129.8,585.3H824.1V553.7H129.8v31.6Z" class="g1_31"/>
<path fill-rule="evenodd" d="M129.8,617H824.1V585.3H129.8V617Z" class="g1_31"/>
<path fill-rule="evenodd" d="M129.8,639.4H824.1V617H129.8v22.4Z" class="g1_31"/>
<path fill-rule="evenodd" d="M129.8,661.7H824.1V639.4H129.8v22.3Z" class="g1_31"/>
<path fill-rule="evenodd" d="M129.8,684.1H824.1V661.7H129.8v22.4Z" class="g1_31"/>
<path fill-rule="evenodd" d="M129.8,706.5H824.1V684.1H129.8v22.4Z" class="g1_31"/>
<path fill-rule="evenodd" d="M129.8,728.9H824.1V706.5H129.8v22.4Z" class="g1_31"/>
<path fill-rule="evenodd" d="M129.8,751.2H824.1V728.9H129.8v22.3Z" class="g1_31"/>
<path fill-rule="evenodd" d="M129.8,773.6H824.1V751.2H129.8v22.4Z" class="g1_31"/>
<path fill-rule="evenodd" d="M129.8,796.1H824.1V773.6H129.8v22.5Z" class="g1_31"/>
<path fill-rule="evenodd" d="M129.8,818.5H824.1V796.1H129.8v22.4Z" class="g1_31"/>
<path fill-rule="evenodd" d="M129.8,840.9H824.1V818.5H129.8v22.4Z" class="g1_31"/>
<path fill-rule="evenodd" d="M129.8,863.2H824.1V840.9H129.8v22.3Z" class="g1_31"/>
<path fill-rule="evenodd" d="M129.8,885.6H824.1V863.2H129.8v22.4Z" class="g1_31"/>
<path fill-rule="evenodd" d="M129.8,917.1H824.1V885.6H129.8v31.5Z" class="g1_31"/>
<path fill-rule="evenodd" d="M129.8,939.5H824.1V917.1H129.8v22.4Z" class="g1_31"/>
<path fill-rule="evenodd" d="M129.8,961.9H824.1V939.5H129.8v22.4Z" class="g1_31"/>
<path fill-rule="evenodd" d="M129.8,984.2H824.1V961.9H129.8v22.3Z" class="g1_31"/>
<path fill-rule="evenodd" d="M129.8,1006.8H824.1V984.2H129.8v22.6Z" class="g1_31"/>
<path fill-rule="evenodd" d="M129.8,1029.2H824.1v-22.4H129.8v22.4Z" class="g1_31"/>
<path fill-rule="evenodd" d="M129.8,1051.6H824.1v-22.4H129.8v22.4Z" class="g1_31"/>
<path fill-rule="evenodd" d="M129.8,1073.9H824.1v-22.3H129.8v22.3Z" class="g1_31"/>
<path fill-rule="evenodd" d="M129.8,1096.3H824.1v-22.4H129.8v22.4Z" class="g1_31"/>
<path fill-rule="evenodd" d="M129.8,1127.8H824.1v-31.5H129.8v31.5Z" class="g1_31"/>
<path fill-rule="evenodd" d="M129.8,1150.2H824.1v-22.4H129.8v22.4Z" class="g1_31"/>
<path fill-rule="evenodd" d="M129.8,1172.6H824.1v-22.4H129.8v22.4Z" class="g1_31"/>
</svg>