<?xml version="1.0" encoding="UTF-8" standalone="no"?>
<!DOCTYPE svg PUBLIC "-//W3C//DTD SVG 1.1//EN"
"http://www.w3.org/Graphics/SVG/1.1/DTD/svg11.dtd">
<svg viewBox="0 0 909 1285" version="1.1" xmlns="http://www.w3.org/2000/svg" xmlns:xlink="http://www.w3.org/1999/xlink">
<defs>
<style type="text/css"><![CDATA[
.g0_32{
fill: #D9D9D9;
}
.g1_32{
fill: #FFFFFF;
}
]]></style>
</defs>
<path fill-rule="evenodd" d="M129.8,1188.5H824.1v-.7H129.8v.7Z" class="g0_32"/>
<path fill-rule="evenodd" d="M129.8,132.4H824.1V110H129.8v22.4Z" class="g1_32"/>
<path fill-rule="evenodd" d="M129.8,154.8H824.1V132.4H129.8v22.4Z" class="g1_32"/>
<path fill-rule="evenodd" d="M129.8,177.1H824.1V154.8H129.8v22.3Z" class="g1_32"/>
<path fill-rule="evenodd" d="M129.8,199.5H824.1V177.1H129.8v22.4Z" class="g1_32"/>
<path fill-rule="evenodd" d="M129.8,222H824.1V199.5H129.8V222Z" class="g1_32"/>
<path fill-rule="evenodd" d="M129.8,253.6H824.1V222H129.8v31.6Z" class="g1_32"/>
<path fill-rule="evenodd" d="M129.8,285.1H824.1V253.6H129.8v31.5Z" class="g1_32"/>
<path fill-rule="evenodd" d="M129.8,307.5H824.1V285.1H129.8v22.4Z" class="g1_32"/>
<path fill-rule="evenodd" d="M129.8,329.8H824.1V307.5H129.8v22.3Z" class="g1_32"/>
<path fill-rule="evenodd" d="M129.8,352.2H824.1V329.8H129.8v22.4Z" class="g1_32"/>
<path fill-rule="evenodd" d="M129.8,374.6H824.1V352.2H129.8v22.4Z" class="g1_32"/>
<path fill-rule="evenodd" d="M129.8,396.9H824.1V374.6H129.8v22.3Z" class="g1_32"/>
<path fill-rule="evenodd" d="M129.8,428.7H824.1V397H129.8v31.7Z" class="g1_32"/>
<path fill-rule="evenodd" d="M129.8,451.1H824.1V428.7H129.8v22.4Z" class="g1_32"/>
<path fill-rule="evenodd" d="M129.8,473.4H824.1V451.1H129.8v22.3Z" class="g1_32"/>
<path fill-rule="evenodd" d="M129.8,495.8H824.1V473.4H129.8v22.4Z" class="g1_32"/>
<path fill-rule="evenodd" d="M129.8,518.2H824.1V495.8H129.8v22.4Z" class="g1_32"/>
<path fill-rule="evenodd" d="M129.8,540.5H824.1V518.2H129.8v22.3Z" class="g1_32"/>
<path fill-rule="evenodd" d="M129.8,562.9H824.1V540.5H129.8v22.4Z" class="g1_32"/>
<path fill-rule="evenodd" d="M129.8,585.3H824.1V562.9H129.8v22.4Z" class="g1_32"/>
<path fill-rule="evenodd" d="M129.8,607.8H824.1V585.3H129.8v22.5Z" class="g1_32"/>
<path fill-rule="evenodd" d="M129.8,630.2H824.1V607.8H129.8v22.4Z" class="g1_32"/>
<path fill-rule="evenodd" d="M129.8,661.7H824.1V630.2H129.8v31.5Z" class="g1_32"/>
<path fill-rule="evenodd" d="M129.8,684.1H824.1V661.7H129.8v22.4Z" class="g1_32"/>
<path fill-rule="evenodd" d="M129.8,706.5H824.1V684.1H129.8v22.4Z" class="g1_32"/>
<path fill-rule="evenodd" d="M129.8,728.9H824.1V706.5H129.8v22.4Z" class="g1_32"/>
<path fill-rule="evenodd" d="M129.8,751.2H824.1V728.9H129.8v22.3Z" class="g1_32"/>
<path fill-rule="evenodd" d="M129.8,773.6H824.1V751.2H129.8v22.4Z" class="g1_32"/>
<path fill-rule="evenodd" d="M129.8,796.1H824.1V773.6H129.8v22.5Z" class="g1_32"/>
<path fill-rule="evenodd" d="M129.8,818.5H824.1V796.1H129.8v22.4Z" class="g1_32"/>
<path fill-rule="evenodd" d="M129.8,840.9H824.1V818.5H129.8v22.4Z" class="g1_32"/>
<path fill-rule="evenodd" d="M129.8,863.2H824.1V840.9H129.8v22.3Z" class="g1_32"/>
<path fill-rule="evenodd" d="M129.8,885.6H824.1V863.2H129.8v22.4Z" class="g1_32"/>
<path fill-rule="evenodd" d="M129.8,908H824.1V885.6H129.8V908Z" class="g1_32"/>
<path fill-rule="evenodd" d="M129.8,930.3H824.1V908H129.8v22.3Z" class="g1_32"/>
</svg>