<?xml version="1.0" encoding="UTF-8" standalone="no"?>
<!DOCTYPE svg PUBLIC "-//W3C//DTD SVG 1.1//EN"
"http://www.w3.org/Graphics/SVG/1.1/DTD/svg11.dtd">
<svg viewBox="0 0 909 1285" version="1.1" xmlns="http://www.w3.org/2000/svg" xmlns:xlink="http://www.w3.org/1999/xlink">
<defs>
<style type="text/css"><![CDATA[
.g0_24{
fill: #D9D9D9;
}
.g1_24{
fill: #FFFFFF;
}
]]></style>
</defs>
<path fill-rule="evenodd" d="M129.8,1188.5H824.1v-.7H129.8v.7Z" class="g0_24"/>
<path fill-rule="evenodd" d="M129.8,352.2H824.1V329.8H129.8v22.4Z" class="g1_24"/>
<path fill-rule="evenodd" d="M129.8,374.6H824.1V352.2H129.8v22.4Z" class="g1_24"/>
<path fill-rule="evenodd" d="M129.8,396.9H824.1V374.6H129.8v22.3Z" class="g1_24"/>
<path fill-rule="evenodd" d="M129.8,419.5H824.1V396.9H129.8v22.6Z" class="g1_24"/>
<path fill-rule="evenodd" d="M129.8,451.1H824.1V419.5H129.8v31.6Z" class="g1_24"/>
<path fill-rule="evenodd" d="M129.8,473.4H824.1V451.1H129.8v22.3Z" class="g1_24"/>
<path fill-rule="evenodd" d="M129.8,495.8H824.1V473.4H129.8v22.4Z" class="g1_24"/>
<path fill-rule="evenodd" d="M129.8,518.2H824.1V495.8H129.8v22.4Z" class="g1_24"/>
<path fill-rule="evenodd" d="M129.8,540.5H824.1V518.2H129.8v22.3Z" class="g1_24"/>
<path fill-rule="evenodd" d="M129.8,572.1H824.1V540.5H129.8v31.6Z" class="g1_24"/>
<path fill-rule="evenodd" d="M129.8,594.4H824.1V572.1H129.8v22.3Z" class="g1_24"/>
<path fill-rule="evenodd" d="M129.8,617H824.1V594.4H129.8V617Z" class="g1_24"/>
<path fill-rule="evenodd" d="M129.8,639.4H824.1V617H129.8v22.4Z" class="g1_24"/>
<path fill-rule="evenodd" d="M129.8,661.7H824.1V639.4H129.8v22.3Z" class="g1_24"/>
<path fill-rule="evenodd" d="M129.8,684.1H824.1V661.7H129.8v22.4Z" class="g1_24"/>
<path fill-rule="evenodd" d="M129.8,715.7H824.1V684.1H129.8v31.6Z" class="g1_24"/>
<path fill-rule="evenodd" d="M129.8,738H824.1V715.7H129.8V738Z" class="g1_24"/>
<path fill-rule="evenodd" d="M129.8,760.4H824.1V738H129.8v22.4Z" class="g1_24"/>
<path fill-rule="evenodd" d="M129.8,782.8H824.1V760.4H129.8v22.4Z" class="g1_24"/>
<path fill-rule="evenodd" d="M129.8,805.3H824.1V782.8H129.8v22.5Z" class="g1_24"/>
<path fill-rule="evenodd" d="M129.8,827.7H824.1V805.3H129.8v22.4Z" class="g1_24"/>
<path fill-rule="evenodd" d="M129.8,850H824.1V827.7H129.8V850Z" class="g1_24"/>
<path fill-rule="evenodd" d="M129.8,881.6H824.1V850H129.8v31.6Z" class="g1_24"/>
<path fill-rule="evenodd" d="M129.8,903.9H824.1V881.6H129.8v22.3Z" class="g1_24"/>
<path fill-rule="evenodd" d="M129.8,926.3H824.1V903.9H129.8v22.4Z" class="g1_24"/>
<path fill-rule="evenodd" d="M129.8,948.7H824.1V926.3H129.8v22.4Z" class="g1_24"/>
<path fill-rule="evenodd" d="M129.8,971H824.1V948.7H129.8V971Z" class="g1_24"/>
<path fill-rule="evenodd" d="M129.8,993.4H824.1V971H129.8v22.4Z" class="g1_24"/>
<path fill-rule="evenodd" d="M129.8,1025.2H824.1V993.4H129.8v31.8Z" class="g1_24"/>
<path fill-rule="evenodd" d="M129.8,1047.5H824.1v-22.3H129.8v22.3Z" class="g1_24"/>
<path fill-rule="evenodd" d="M129.8,1069.9H824.1v-22.4H129.8v22.4Z" class="g1_24"/>
<path fill-rule="evenodd" d="M129.8,1092.3H824.1v-22.4H129.8v22.4Z" class="g1_24"/>
<path fill-rule="evenodd" d="M129.8,1114.6H824.1v-22.3H129.8v22.3Z" class="g1_24"/>
<path fill-rule="evenodd" d="M129.8,1137H824.1v-22.4H129.8V1137Z" class="g1_24"/>
<path fill-rule="evenodd" d="M129.8,1159.4H824.1V1137H129.8v22.4Z" class="g1_24"/>
</svg>